<svg width="24" height="24" viewBox="0 0 24 24" fill="none" xmlns="http://www.w3.org/2000/svg">
<path d="M4.44 4.44C4.57913 4.30067 4.74436 4.19014 4.92624 4.11473C5.10813 4.03931 5.3031 4.00049 5.5 4.00049C5.6969 4.00049 5.89186 4.03931 6.07375 4.11473C6.25563 4.19014 6.42087 4.30067 6.56 4.44L12 9.878L17.44 4.44C17.5792 4.3008 17.7445 4.19038 17.9263 4.11504C18.1082 4.03971 18.3031 4.00093 18.5 4.00093C18.6969 4.00093 18.8918 4.03971 19.0737 4.11504C19.2555 4.19038 19.4208 4.3008 19.56 4.44C19.6992 4.5792 19.8096 4.74446 19.885 4.92633C19.9603 5.10821 19.9991 5.30314 19.9991 5.5C19.9991 5.69686 19.9603 5.89179 19.885 6.07367C19.8096 6.25554 19.6992 6.4208 19.56 6.56L14.122 12L19.56 17.44C19.8411 17.7211 19.9991 18.1024 19.9991 18.5C19.9991 18.8976 19.8411 19.2789 19.56 19.56C19.2789 19.8411 18.8976 19.9991 18.5 19.9991C18.1024 19.9991 17.7211 19.8411 17.44 19.56L12 14.122L6.56 19.56C6.27887 19.8411 5.89757 19.9991 5.5 19.9991C5.10242 19.9991 4.72113 19.8411 4.44 19.56C4.15887 19.2789 4.00093 18.8976 4.00093 18.5C4.00093 18.1024 4.15887 17.7211 4.44 17.44L9.878 12L4.44 6.56C4.30067 6.42087 4.19014 6.25564 4.11472 6.07375C4.03931 5.89187 4.00049 5.6969 4.00049 5.5C4.00049 5.3031 4.03931 5.10813 4.11472 4.92625C4.19014 4.74436 4.30067 4.57913 4.44 4.44Z" fill="#463B38"/>
</svg>
