<svg width="265" height="61" viewBox="0 0 265 61" fill="none" xmlns="http://www.w3.org/2000/svg">
<path d="M0 0.5H30V5.5H10V60.5H0V0.5Z" fill="#C71D1D"/>
<path d="M44.9609 45.5C47.6943 45.5 50.2609 44.9667 52.6609 43.9C55.1276 42.8333 57.2609 41.4 59.0609 39.6C60.8609 37.8 62.2943 35.7 63.3609 33.3C64.4276 30.8333 64.9609 28.2333 64.9609 25.5C64.9609 22.7667 64.4276 20.2 63.3609 17.8C62.2943 15.3333 60.8609 13.2 59.0609 11.4C57.2609 9.6 55.1276 8.16667 52.6609 7.1C50.2609 6.03333 47.6943 5.5 44.9609 5.5V45.5ZM44.9609 0.5C49.0943 0.5 52.9943 1.16667 56.6609 2.5C60.3276 3.76666 63.4943 5.53333 66.1609 7.8C68.8943 10.0667 71.0276 12.7333 72.5609 15.8C74.1609 18.8 74.9609 22.0333 74.9609 25.5C74.9609 28.9667 74.1609 32.2333 72.5609 35.3C71.0276 38.3 68.8943 40.9333 66.1609 43.2C63.4943 45.4667 60.3276 47.2667 56.6609 48.6C52.9943 49.8667 49.0943 50.5 44.9609 50.5V60.5H34.9609V0.5H44.9609Z" fill="#C71D1D"/>
<path d="M114.98 0.5L94.9805 60.5H84.9805L93.6805 34.5C91.6805 33.8333 89.8471 32.9 88.1805 31.7C86.5138 30.4333 85.0805 28.9667 83.8805 27.3C82.6805 25.6333 81.7138 23.8 80.9805 21.8C80.3138 19.8 79.9805 17.7 79.9805 15.5V0.5H89.9805V15.5C89.9805 18.5 90.4805 21.2 91.4805 23.6C92.5471 25.9333 93.8805 27.7 95.4805 28.9L104.98 0.5H114.98Z" fill="#C71D1D"/>
<path d="M152.52 13C152.52 14.8667 152.153 16.6 151.42 18.2C150.686 19.8 149.653 21.1667 148.32 22.3C151.786 23.8333 154.586 26.2333 156.72 29.5C158.92 32.7667 160.02 36.4333 160.02 40.5C160.02 43.2333 159.486 45.8333 158.42 48.3C157.353 50.7 155.92 52.8 154.12 54.6C152.32 56.4 150.186 57.8333 147.72 58.9C145.32 59.9667 142.753 60.5 140.02 60.5C137.286 60.5 134.686 59.9667 132.22 58.9C129.82 57.8333 127.72 56.4 125.92 54.6C124.12 52.8 122.686 50.7 121.62 48.3C120.553 45.8333 120.02 43.2333 120.02 40.5H130.02C130.02 42.5667 130.286 44.5333 130.82 46.4C131.353 48.2 132.053 49.7667 132.92 51.1C133.853 52.4333 134.92 53.5 136.12 54.3C137.32 55.1 138.62 55.5 140.02 55.5C141.42 55.5 142.72 55.1 143.92 54.3C145.12 53.5 146.153 52.4333 147.02 51.1C147.953 49.7667 148.686 48.2 149.22 46.4C149.753 44.5333 150.02 42.5667 150.02 40.5C150.02 38.4333 149.753 36.5 149.22 34.7C148.686 32.8333 147.953 31.2333 147.02 29.9C146.153 28.5667 145.12 27.5 143.92 26.7C142.72 25.9 141.42 25.5 140.02 25.5V20.5C140.753 20.5 141.353 19.7667 141.82 18.3C142.286 16.8333 142.52 15.0667 142.52 13C142.52 10.9333 142.286 9.16667 141.82 7.7C141.353 6.23334 140.753 5.5 140.02 5.5C139.486 5.5 138.986 5.96667 138.52 6.9C138.053 7.83333 137.753 9.03333 137.62 10.5H127.82C128.42 7.63333 129.853 5.26666 132.12 3.4C134.386 1.46667 137.02 0.5 140.02 0.5C141.753 0.5 143.353 0.833333 144.82 1.5C146.353 2.16667 147.686 3.06667 148.82 4.2C149.953 5.33333 150.853 6.66667 151.52 8.2C152.186 9.66667 152.52 11.2667 152.52 13Z" fill="#C71D1D"/>
<path d="M195.039 0.5V60.5H185.039V30.5L175.039 60.5H165.039V0.5H175.039V45.5L185.039 15.5V0.5H195.039Z" fill="#C71D1D"/>
<path d="M225 30.5C225 33.9667 225.4 37.2333 226.2 40.3C227 43.3 228.067 45.9333 229.4 48.2C230.733 50.4667 232.3 52.2667 234.1 53.6C235.967 54.8667 237.933 55.5 240 55.5C242.067 55.5 244 54.8667 245.8 53.6C247.667 52.2667 249.267 50.4667 250.6 48.2C251.933 45.9333 253 43.3 253.8 40.3C254.6 37.2333 255 33.9667 255 30.5C255 27.0333 254.6 23.8 253.8 20.8C253 17.7333 251.933 15.0667 250.6 12.8C249.267 10.5333 247.667 8.76667 245.8 7.5C244 6.16667 242.067 5.5 240 5.5C237.933 5.5 235.967 6.16667 234.1 7.5C232.3 8.76667 230.733 10.5333 229.4 12.8C228.067 15.0667 227 17.7333 226.2 20.8C225.4 23.8 225 27.0333 225 30.5ZM200 0.5H210V25.5H215.3C215.833 21.9667 216.833 18.6667 218.3 15.6C219.767 12.5333 221.567 9.9 223.7 7.7C225.9 5.43333 228.4 3.66667 231.2 2.4C234 1.13333 236.933 0.5 240 0.5C243.467 0.5 246.7 1.3 249.7 2.9C252.767 4.43333 255.433 6.56667 257.7 9.3C259.967 11.9667 261.733 15.1333 263 18.8C264.333 22.4667 265 26.3667 265 30.5C265 34.6333 264.333 38.5333 263 42.2C261.733 45.8667 259.967 49.0667 257.7 51.8C255.433 54.4667 252.767 56.6 249.7 58.2C246.7 59.7333 243.467 60.5 240 60.5C236.533 60.5 233.267 59.7333 230.2 58.2C227.2 56.6 224.567 54.4667 222.3 51.8C220.033 49.0667 218.233 45.8667 216.9 42.2C215.633 38.5333 215 34.6333 215 30.5H210V60.5H200V0.5Z" fill="#C71D1D"/>
</svg>
