<svg width="100" height="22" viewBox="0 0 100 22" fill="none" xmlns="http://www.w3.org/2000/svg">
<path d="M0 21.3053V0.694738H3.8308V17.4842H9.74854V21.3053H0Z" fill="#463B38"/>
<path d="M10.2962 21.3053L15.2419 0.694738H18.9584L23.9327 21.3053H20.0733L19.6445 19.4237H14.5558L14.127 21.3053H10.2962ZM15.4134 15.6605H18.8154L17.1001 7.41053L15.4134 15.6605Z" fill="#463B38"/>
<path d="M24.8922 21.3053V17.9763L30.9529 4.54474H24.8922V0.694738H35.3268V4.11053L29.2947 17.4842H35.3268V21.3053H24.8922Z" fill="#463B38"/>
<path d="M36.3158 21.3053L41.2615 0.694738H44.978L49.9523 21.3053H46.0929L45.6641 19.4237H40.5754L40.1466 21.3053H36.3158ZM41.4331 15.6605H44.835L43.1198 7.41053L41.4331 15.6605Z" fill="#463B38"/>
<path d="M51.3692 21.3053V0.694738H56.8009C60.4888 0.694738 62.3756 4.74737 62.3756 8.77105C62.3756 11.4632 61.6037 13.8368 60.1172 15.2553L62.6901 21.3053H58.5734L56.7152 16.8184H55.1714V21.3053H51.3692ZM55.1714 13.0263H56.7438C58.0302 13.0263 58.602 10.9132 58.602 8.77105C58.602 6.65789 57.9731 4.54474 56.658 4.54474H55.1714V13.0263Z" fill="#463B38"/>
<path d="M64.1702 10.9711C64.1702 4.95 69.0302 0 75.0337 0C81.0372 0 85.8971 4.95 85.8971 10.9711C85.8971 17.0789 81.0372 22 75.0337 22C69.0302 22 64.1702 17.0789 64.1702 10.9711ZM82.0378 10.9711C82.0378 7.09211 78.9216 3.9079 75.0337 3.9079C71.1743 3.9079 68.0296 7.09211 68.0296 10.9711C68.0296 14.9079 71.1743 18.1211 75.0337 18.1211C78.9216 18.1211 82.0378 14.9079 82.0378 10.9711Z" fill="#C71D1D"/>
<path d="M91.252 21.3053L86.7637 0.694738H90.6803C91.5665 5.23948 92.4813 9.81316 93.3962 14.3579L96.112 0.694738H100L95.5403 21.3053H91.252Z" fill="#463B38"/>
</svg>
